<?xml version="1.0" encoding="UTF-8"?>
<svg id="Layer_2" data-name="Layer 2" xmlns="http://www.w3.org/2000/svg" viewBox="0 0 36.2 42.13">
  <defs>
    <style>
      .cls-1 {
        fill: none;
        stroke: #808285;
        stroke-linecap: round;
        stroke-linejoin: bevel;
        stroke-width: .75px;
      }

      .cls-2 {
        fill: #474747;
      }

      .cls-2, .cls-3, .cls-4, .cls-5, .cls-6 {
        stroke-width: 0px;
      }

      .cls-3 {
        fill: #0049a0;
      }

      .cls-4 {
        fill: #f18c21;
      }

      .cls-5 {
        fill: #006fdd;
        opacity: .21;
      }

      .cls-6 {
        fill: #262626;
      }
    </style>
  </defs>
  <g id="Layer_1-2" data-name="Layer 1">
    <g>
      <g>
        <path class="cls-4" d="M26.46,31.54c-.64-.11-1.26-.28-1.99-.26.02.06.11.08.17.11.54.26,1.02.54,1.4.86.75.63,1.06,1.31.95,2.04-.12.79-.71,1.5-1.62,2.14-.06.04-.12.09-.19.13-.02.01-.05.03-.08.02-.05,0-.06-.02-.07-.05-.02-.08-.03-.16-.05-.24-.05-.21-.14-.42-.3-.62-.11-.13-.25-.26-.46-.35-.28-.12-.58-.14-.9-.04-.31.1-.5.24-.65.4-.24.26-.36.53-.4.81-.03.22-.01.44.02.66.07.51.02,1.01-.33,1.49-.28.39-.73.71-1.3,1.01-.02.01-.05.02-.07.03-.06.02-.11.01-.13-.02-.01-.04-.02-.08-.02-.12-.02-.17-.1-.33-.27-.48-.19-.16-.49-.23-.8-.19-.22.03-.39.1-.53.18-.13.08-.24.17-.32.27-.44.55-.37,1.08.21,1.6.36.32.78.61,1.17.92.09.07.18.14.26.21.05.04,0,.07-.08.05-.15-.02-.3-.04-.44-.07-1.56-.29-2.95-.72-4.18-1.28-.89-.4-1.63-.86-2.17-1.4-.4-.39-.63-.81-.68-1.25-.02-.17.03-.34.06-.51.06-.44.09-.89-.13-1.32-.05-.1-.12-.2-.22-.3-.03-.03-.05-.05-.08-.07-.28-.21-.62-.21-.91,0-.2.15-.32.31-.41.48-.08.14-.15.29-.2.44,0,.03,0,.06-.07.07-.09-.01-.1-.05-.12-.08-.48-.54-.93-1.08-1.22-1.65-.17-.33-.29-.66-.3-1-.02-.5.21-.98.7-1.42.48-.44,1.14-.8,1.88-1.13.17-.08.35-.15.52-.22.03-.01.09-.02.08-.06-.68-.03-1.32.1-1.98.18.18-.17,1.93-.77,3.13-1.08,1.22-.31,3.1-.67,3.52-.66.02.04-.06.06-.11.09-.56.31-1.11.63-1.58.98-.7.52-1.22,1.07-1.45,1.69-.03.08-.05.16-.07.24,0,.02,0,.03,0,.08.34-.2.66-.37,1.16-.45-.01.1-.16.16-.23.24-.07.08-.16.15-.22.23-.07.08-.12.17-.17.26-.04.08-.08.17-.1.25-.02.09-.02.18-.04.27-.02.09-.03.17-.02.26,0,.09.03.17.05.28.1-.04.12-.08.17-.12.27-.23.57-.45.99-.61.66-.26,1.44-.25,2.03.05.68.34.96.75.8,1.23-.07.2-.29.38-.5.55-.2.16-.44.31-.71.45-.31.16-.62.31-.93.47-.05.03-.13.05-.16.1.39-.05.74-.12,1.09-.2.82-.19,1.58-.43,2.23-.74.98-.47,1.61-1.03,1.76-1.71.08-.37,0-.73-.19-1.09-.01-.02-.03-.05-.04-.07-.07-.13-.02-.16.25-.16.25,0,.46.05.65.12.27.1.48.23.7.36.09.05.18.11.27.16.03.02.05.04.1.03.06,0,.06-.04.06-.06.02-.2.04-.39,0-.59-.14-.62-.58-1.17-1.35-1.67-.58-.37-1.3-.66-2.13-.88-.08-.02-.18-.03-.24-.08.02-.04.07-.03.12-.03,1.22.08,2.43.18,3.6.38,1.53.27,2.78.74,3.8,1.36.03.02.07.04.04.08Z"/>
        <path class="cls-4" d="M23.2,38.04s-.01-.03,0-.04c.12-.22.07-.44.01-.65-.08-.29.11-.53.58-.7.13-.05.26-.1.41-.13.17-.04.21-.03.24.06.11.35.04.69-.36,1-.21.16-.47.31-.75.45-.03.01-.06.03-.13.02Z"/>
      </g>
      <path class="cls-2" d="M9.24,29.91l-.26,5.1s9.4-3.4,18.03,0v-5.1"/>
      <path class="cls-6" d="M30.24,30.55c.54,3.23.81,5.37.81,5.37-2.14-3.89-12.96-4.92-12.96-4.92,0,0-10.82,1.03-12.94,4.92,0,0,.27-2.14.81-5.37l-5.96,1.63,2.3-7.99,5.26-2.01C9.67,12.56,13.17,1.2,18.09,0c4.92,1.2,8.42,12.56,10.54,22.18l5.27,2.01,2.3,7.99-5.96-1.63Z"/>
      <path class="cls-1" d="M17.45,1.01s-7.07,4.67-9.2,25.26"/>
      <polyline class="cls-1" points="8.68 22.77 2.99 24.76 1.08 31.23 5.84 29.91 6.86 29.61 6.05 33.99"/>
      <circle class="cls-3" cx="18.1" cy="10.16" r="3.81"/>
      <path class="cls-5" d="M18.1,6.35s-5.85,3.78,0,7.61c0,0-3.43.09-3.81-3.81,0,0,.21-3.68,3.81-3.81Z"/>
    </g>
  </g>
</svg>